<svg width="185" height="100" viewBox="0 0 185 100" fill="none" xmlns="http://www.w3.org/2000/svg">
<path d="M53.3242 80.2754L59.6631 57.5186H68.8887L57.0498 100H48.0498L44.9375 78.8721L39.0508 100H30.0498L41.9209 57.5186H49.9531L53.3242 80.2754ZM29.1631 99.999H20.0342L20.4531 94.3066H11.8887L9.11523 99.999H0.130859L21.873 57.5342H30.9697L29.1631 99.999ZM94.082 66.6309H85.9688L76.6465 99.999H67.6787L76.9688 66.6309H68.4209L70.9688 57.5186H96.6455L94.082 66.6309ZM108.001 99.999H98.9043L99.3076 94.3057H90.7754L87.9697 99.999H78.9531L100.743 57.5342H109.808L108.001 99.999ZM69.8398 0C97.3383 -0.0524143 124.613 4.94383 150.307 14.7402L162.274 24.9004C144.88 20.3193 127.027 17.7018 109.05 17.0957C139.19 28.0109 165.339 47.7332 184.111 73.6865L185 74.9277L166.759 99.9893C130.317 49.2568 71.6479 19.2051 9.17969 19.2725C6.58317 19.2725 2.71226 19.4336 0.131836 19.4336L20.502 5.41895C36.6968 1.79088 53.2437 -0.0268378 69.8398 0ZM15.6963 85.4844H21.002L22.6152 70.4854L15.6963 85.4844ZM94.5488 85.4834H99.8555L101.469 70.4854L94.5488 85.4834Z" fill="#D7000F"/>
</svg>
